<?xml version="1.0" encoding="UTF-8"?><svg id="Layer_2" xmlns="http://www.w3.org/2000/svg" viewBox="0 0 240 336"><defs><style>.cls-1{font-family:NotoSerifKannada-SemiBold, 'Noto Serif Kannada';font-size:45.43px;font-weight:600;opacity:.99;}.cls-1,.cls-2{fill:red;}.cls-2,.cls-3{stroke-width:0px;}.cls-4{letter-spacing:-.08em;}.cls-3{fill:#fff;}</style></defs><g id="Layer_5"><rect class="cls-3" width="240" height="336" rx="13.54" ry="13.54"/><text class="cls-1" transform="translate(10.4 50.33)"><tspan class="cls-4" x="0" y="0">1</tspan><tspan x="21.96" y="0">0</tspan></text><polygon class="cls-2" points="22.25 75.32 34.36 59.45 47.3 75.32 34.78 91.18 22.25 75.32"/><polygon class="cls-2" points="196.16 257.87 208.27 242 221.21 257.87 208.69 273.74 196.16 257.87"/><text class="cls-1" transform="translate(232.94 284.17) rotate(-180)"><tspan class="cls-4" x="0" y="0">1</tspan><tspan x="21.96" y="0">0</tspan></text><polygon class="cls-2" points="101.4 220.73 119.42 197.12 138.67 220.73 120.04 244.33 101.4 220.73"/><polygon class="cls-2" points="145.97 250.31 163.98 226.71 183.23 250.31 164.6 273.91 145.97 250.31"/><polygon class="cls-2" points="56.5 196.78 74.77 172.84 94.3 196.78 75.4 220.73 56.5 196.78"/><polygon class="cls-2" points="100.49 116.39 118.76 92.45 138.29 116.39 119.39 140.33 100.49 116.39"/><polygon class="cls-2" points="145.97 197.12 163.98 173.52 183.23 197.12 164.6 220.73 145.97 197.12"/><polygon class="cls-2" points="145.7 140.33 163.97 116.39 183.5 140.33 164.6 164.27 145.7 140.33"/><polygon class="cls-2" points="56.5 137.71 74.77 113.77 94.3 137.71 75.4 161.65 56.5 137.71"/><polygon class="cls-2" points="145.7 85.87 163.97 61.93 183.5 85.87 164.6 109.81 145.7 85.87"/><polygon class="cls-2" points="56.58 83.25 74.85 59.31 94.38 83.25 75.48 107.19 56.58 83.25"/><polygon class="cls-2" points="57.47 253.09 75.49 229.49 94.74 253.09 76.11 276.69 57.47 253.09"/></g></svg>