<?xml version="1.0" encoding="UTF-8"?><svg id="Layer_2" xmlns="http://www.w3.org/2000/svg" viewBox="0 0 240 336"><defs><style>.cls-1{font-size:45.43px;}.cls-1,.cls-2{font-family:NotoSerifKannada-SemiBold, 'Noto Serif Kannada';font-weight:600;}.cls-1,.cls-2,.cls-3{fill:#000;}.cls-2{font-size:45.43px;}.cls-3,.cls-4{stroke-width:0px;}.cls-4{fill:#fff;}</style></defs><g id="Layer_11"><rect class="cls-4" width="240" height="336" rx="13.54" ry="13.54"/><text class="cls-1" transform="translate(15.01 51.95)"><tspan x="0" y="0">2</tspan></text><text class="cls-2" transform="translate(224.97 284.01) rotate(-180)"><tspan x="0" y="0">2</tspan></text><path class="cls-3" d="M99,92.15c0-5.47,4.58-9.89,10.22-9.89.29,0,.59.01.87.04-.35-1.14-.55-2.36-.55-3.63,0-6.3,4.73-11.4,10.56-11.4s10.57,5.1,10.57,11.4c0,1.26-.19,2.47-.55,3.61.21-.01.41-.02.63-.02,5.66,0,10.23,4.42,10.23,9.89s-4.58,9.88-10.23,9.88c-3.79,0-7.1-1.99-8.86-4.96h-.74c.99,1.34,2.71,3.66,3.52,4.65.96,1.15,2.41,2.41,2.41,2.41h-14.11s1.45-1.26,2.41-2.41c.81-.99,2.54-3.31,3.52-4.65h-.83c-1.75,2.97-5.06,4.96-8.86,4.96-5.65,0-10.22-4.42-10.22-9.88Z"/><path class="cls-3" d="M141,258.8c0,5.47-4.58,9.89-10.22,9.89-.29,0-.59-.01-.87-.04.35,1.14.55,2.36.55,3.63,0,6.3-4.73,11.4-10.56,11.4s-10.57-5.1-10.57-11.4c0-1.26.19-2.47.55-3.61-.21.01-.41.02-.63.02-5.66,0-10.23-4.42-10.23-9.89,0-5.46,4.58-9.88,10.23-9.88,3.79,0,7.1,1.99,8.86,4.96h.74c-.99-1.34-2.71-3.66-3.52-4.65-.96-1.15-2.41-2.41-2.41-2.41h14.11s-1.45,1.26-2.41,2.41c-.81.99-2.54,3.31-3.52,4.65h.83c1.75-2.97,5.06-4.96,8.86-4.96,5.65,0,10.22,4.42,10.22,9.88Z"/><path class="cls-3" d="M228.47,259.04c0,4.17-3.49,7.54-7.79,7.54-.22,0-.45,0-.66-.03.27.87.42,1.8.42,2.76,0,4.8-3.6,8.69-8.05,8.69s-8.06-3.89-8.06-8.69c0-.96.14-1.88.42-2.75-.16,0-.31.02-.48.02-4.31,0-7.8-3.37-7.8-7.54s3.49-7.53,7.8-7.53c2.89,0,5.41,1.52,6.75,3.78h.57c-.75-1.02-2.07-2.79-2.69-3.54-.73-.88-1.84-1.84-1.84-1.84h10.75s-1.11.96-1.84,1.84c-.62.75-1.93,2.52-2.69,3.54h.64c1.33-2.26,3.86-3.78,6.75-3.78,4.3,0,7.79,3.37,7.79,7.53Z"/><path class="cls-3" d="M11.53,82.1c0-4.17,3.49-7.54,7.79-7.54.22,0,.45,0,.66.03-.27-.87-.42-1.8-.42-2.76,0-4.8,3.6-8.69,8.05-8.69s8.06,3.89,8.06,8.69c0,.96-.14,1.88-.42,2.75.16,0,.31-.02.48-.02,4.31,0,7.8,3.37,7.8,7.54s-3.49,7.53-7.8,7.53c-2.89,0-5.41-1.52-6.75-3.78h-.57c.75,1.02,2.07,2.79,2.69,3.54.73.88,1.84,1.84,1.84,1.84h-10.75s1.11-.96,1.84-1.84c.62-.75,1.93-2.52,2.69-3.54h-.64c-1.33,2.26-3.86,3.78-6.75,3.78-4.3,0-7.79-3.37-7.79-7.53Z"/></g></svg>