<?xml version="1.0" encoding="UTF-8"?><svg id="Layer_2" xmlns="http://www.w3.org/2000/svg" viewBox="0 0 240 336"><defs><style>.cls-1{font-family:NotoSerifKannada-Medium, 'Noto Serif Kannada';font-size:45.43px;font-weight:500;}.cls-1,.cls-2{fill:red;}.cls-2,.cls-3{stroke-width:0px;}.cls-3{fill:#fff;}</style></defs><g id="Layer_1-2"><rect class="cls-3" width="240" height="336" rx="13.54" ry="13.54"/><polygon class="cls-2" points="134.94 95.71 153.03 72.01 172.36 95.71 153.65 119.4 134.94 95.71"/><polygon class="cls-2" points="15.29 76.56 27.4 60.69 40.34 76.56 27.81 92.43 15.29 76.56"/><polygon class="cls-2" points="64.8 95.71 82.88 72.01 102.21 95.71 83.51 119.4 64.8 95.71"/><polygon class="cls-2" points="134.94 239.2 153.03 215.5 172.36 239.2 153.65 262.89 134.94 239.2"/><polygon class="cls-2" points="64.8 239.2 82.88 215.5 102.21 239.2 83.51 262.89 64.8 239.2"/><polygon class="cls-2" points="195.2 255.07 207.31 239.2 220.25 255.07 207.72 270.93 195.2 255.07"/><text class="cls-1" transform="translate(222.62 280.91) rotate(-180)"><tspan x="0" y="0">4</tspan></text><text class="cls-1" transform="translate(13.02 51.95)"><tspan x="0" y="0">4</tspan></text></g></svg>