<?xml version="1.0" encoding="UTF-8"?><svg id="Layer_2" xmlns="http://www.w3.org/2000/svg" viewBox="0 0 240 336"><defs><style>.cls-1{font-family:NotoSerifKannada-SemiBold, 'Noto Serif Kannada';font-size:45.43px;font-weight:600;}.cls-1,.cls-2{fill:red;}.cls-2,.cls-3{stroke-width:0px;}.cls-3{fill:#fff;}</style></defs><g id="Layer_1-2"><rect class="cls-3" width="240" height="336" rx="13.54" ry="13.54"/><polygon class="cls-2" points="71.21 167.67 89.3 143.97 108.63 167.67 89.92 191.36 71.21 167.67"/><polygon class="cls-2" points="71.21 74.98 89.3 51.29 108.63 74.98 89.92 98.68 71.21 74.98"/><polygon class="cls-2" points="71.01 260.35 89.1 236.66 108.43 260.35 89.72 284.05 71.01 260.35"/><polygon class="cls-2" points="137.2 75.32 155.29 51.62 174.62 75.32 155.91 99.01 137.2 75.32"/><polygon class="cls-2" points="139.08 168 157.16 144.31 176.49 168 157.79 191.69 139.08 168"/><polygon class="cls-2" points="139.08 260.68 157.16 236.99 176.49 260.68 157.79 284.38 139.08 260.68"/><text class="cls-1" transform="translate(20.66 50.33)"><tspan x="0" y="0">7</tspan></text><polygon class="cls-2" points="22.25 75.32 34.36 59.45 47.3 75.32 34.78 91.18 22.25 75.32"/><polygon class="cls-2" points="201.1 257.87 213.21 242 226.16 257.87 213.63 273.74 201.1 257.87"/><text class="cls-1" transform="translate(226.16 284) rotate(-180)"><tspan x="0" y="0">7</tspan></text><polygon class="cls-2" points="104.29 122.37 122.38 98.68 141.71 122.37 123 146.07 104.29 122.37"/></g></svg>