<?xml version="1.0" encoding="UTF-8"?><svg id="Layer_2" xmlns="http://www.w3.org/2000/svg" viewBox="0 0 240 336"><defs><style>.cls-1{font-family:NotoSerifKannada-Medium, 'Noto Serif Kannada';font-size:45.43px;font-weight:500;}.cls-1,.cls-2{fill:red;}.cls-2,.cls-3{stroke-width:0px;}.cls-3{fill:#fff;}</style></defs><g id="Layer_5"><rect class="cls-3" width="240" height="336" rx="13.54" ry="13.54"/><text class="cls-1" transform="translate(20.66 50.33)"><tspan x="0" y="0">9</tspan></text><polygon class="cls-2" points="22.25 75.32 34.36 59.45 47.3 75.32 34.78 91.18 22.25 75.32"/><polygon class="cls-2" points="201.1 257.87 213.21 242 226.16 257.87 213.63 273.74 201.1 257.87"/><text class="cls-1" transform="translate(226.16 284) rotate(-180)"><tspan x="0" y="0">9</tspan></text><polygon class="cls-2" points="62.96 220.36 81.04 196.67 100.37 220.36 81.67 244.06 62.96 220.36"/><polygon class="cls-2" points="139.63 220.36 157.71 196.67 177.04 220.36 158.33 244.06 139.63 220.36"/><polygon class="cls-2" points="62.96 280.26 81.04 256.57 100.37 280.26 81.67 303.96 62.96 280.26"/><polygon class="cls-2" points="139.63 280.26 157.71 256.57 177.04 280.26 158.33 303.96 139.63 280.26"/><polygon class="cls-2" points="62.96 55.74 81.04 32.04 100.37 55.74 81.67 79.43 62.96 55.74"/><polygon class="cls-2" points="139.63 55.74 157.71 32.04 177.04 55.74 158.33 79.43 139.63 55.74"/><polygon class="cls-2" points="62.96 115.56 81.04 91.86 100.37 115.56 81.67 139.25 62.96 115.56"/><polygon class="cls-2" points="139.63 115.56 157.71 91.86 177.04 115.56 158.33 139.25 139.63 115.56"/><polygon class="cls-2" points="101.29 164.11 119.38 140.42 138.71 164.11 120 187.81 101.29 164.11"/></g></svg>