<?xml version="1.0" encoding="UTF-8"?><svg id="Layer_2" xmlns="http://www.w3.org/2000/svg" viewBox="0 0 240 337.84"><defs><style>.cls-1{font-size:47.58px;}.cls-1,.cls-2{font-family:SourceSerifRoman-Semibold, 'Source Serif Variable';font-variation-settings:'wght' 600;font-weight:600;}.cls-1,.cls-2,.cls-3{fill:#000;}.cls-2{font-size:47.58px;}.cls-3,.cls-4{stroke-width:0px;}.cls-4{fill:#fff;}</style></defs><g id="Layer_11"><rect class="cls-4" y="1.84" width="240" height="336" rx="13.54" ry="13.54"/><text class="cls-2" transform="translate(15 57.34)"><tspan x="0" y="0">A</tspan></text><text class="cls-1" transform="translate(225 289.42) rotate(-180)"><tspan x="0" y="0">A</tspan></text><path class="cls-3" d="M59.88,188.74c0-16.16,13.51-29.21,30.19-29.21.85,0,1.73.03,2.56.12-1.03-3.38-1.61-6.97-1.61-10.71,0-18.59,13.97-33.65,31.19-33.65s31.22,15.06,31.22,33.65c0,3.71-.55,7.3-1.61,10.65.61-.03,1.22-.06,1.86-.06,16.71,0,30.22,13.05,30.22,29.21s-13.51,29.18-30.22,29.18c-11.2,0-20.97-5.87-26.17-14.64h-2.19c2.92,3.96,8,10.8,10.41,13.72,2.83,3.41,7.12,7.12,7.12,7.12h-41.66s4.29-3.71,7.12-7.12c2.4-2.92,7.49-9.77,10.41-13.72h-2.46c-5.17,8.76-14.94,14.64-26.17,14.64-16.68,0-30.19-13.05-30.19-29.18Z"/><path class="cls-3" d="M14.37,84.08c0-4.17,3.49-7.54,7.79-7.54.22,0,.45,0,.66.03-.27-.87-.42-1.8-.42-2.76,0-4.8,3.6-8.69,8.05-8.69s8.06,3.89,8.06,8.69c0,.96-.14,1.88-.42,2.75.16,0,.31-.02.48-.02,4.31,0,7.8,3.37,7.8,7.54s-3.49,7.53-7.8,7.53c-2.89,0-5.41-1.52-6.75-3.78h-.57c.75,1.02,2.07,2.79,2.69,3.54.73.88,1.84,1.84,1.84,1.84h-10.75s1.11-.96,1.84-1.84c.62-.75,1.93-2.52,2.69-3.54h-.64c-1.33,2.26-3.86,3.78-6.75,3.78-4.3,0-7.79-3.37-7.79-7.53Z"/><path class="cls-3" d="M225.77,261.02c0,4.17-3.49,7.54-7.79,7.54-.22,0-.45,0-.66-.03.27.87.42,1.8.42,2.76,0,4.8-3.6,8.69-8.05,8.69s-8.06-3.89-8.06-8.69c0-.96.14-1.88.42-2.75-.16,0-.31.02-.48.02-4.31,0-7.8-3.37-7.8-7.54,0-4.16,3.49-7.53,7.8-7.53,2.89,0,5.41,1.52,6.75,3.78h.57c-.75-1.02-2.07-2.79-2.69-3.54-.73-.88-1.84-1.84-1.84-1.84h10.75s-1.11.96-1.84,1.84c-.62.75-1.93,2.52-2.69,3.54h.64c1.33-2.26,3.86-3.78,6.75-3.78,4.3,0,7.79,3.37,7.79,7.53Z"/></g></svg>