<?xml version="1.0" encoding="UTF-8"?><svg id="Layer_2" xmlns="http://www.w3.org/2000/svg" viewBox="0 0 240 337.84"><defs><style>.cls-1,.cls-2{stroke-width:0px;}.cls-1,.cls-3,.cls-4{fill:red;}.cls-2{fill:#fff;}.cls-3{font-size:47.58px;}.cls-3,.cls-4{font-family:SourceSerifRoman-Semibold, 'Source Serif Variable';font-variation-settings:'wght' 600;font-weight:600;}.cls-4{font-size:47.58px;}</style></defs><g id="HEART"><rect class="cls-2" y="1.84" width="240" height="336" rx="13.54" ry="13.54"/><text class="cls-3" transform="translate(15 57.34)"><tspan x="0" y="0">A</tspan></text><text class="cls-4" transform="translate(225 289.42) rotate(-180)"><tspan x="0" y="0">A</tspan></text><path class="cls-1" d="M172.4,169.36l-11.41,12.71-41,45.7-41-45.69-11.5-12.82c-10.28-11.47-10.28-28.85,0-40.31l.45-.5c11.99-13.36,32.94-13.36,44.94,0l7.11,7.93,7-7.8c12.05-13.44,33.09-13.44,45.15,0l.25.26c10.34,11.53,10.34,28.98,0,40.51Z"/><path class="cls-1" d="M43.61,81.37l-2.88,3.21-10.35,11.54-10.35-11.54-2.9-3.24c-2.6-2.9-2.6-7.29,0-10.18l.11-.13c3.03-3.37,8.32-3.37,11.35,0l1.8,2,1.77-1.97c3.04-3.39,8.36-3.39,11.4,0l.06.07c2.61,2.91,2.61,7.32,0,10.23Z"/><path class="cls-1" d="M223.02,263.29l-2.88-3.21-10.35-11.54-10.35,11.54-2.9,3.24c-2.6,2.9-2.6,7.29,0,10.18l.11.13c3.03,3.37,8.32,3.37,11.35,0l1.8-2,1.77,1.97c3.04,3.39,8.36,3.39,11.4,0l.06-.07c2.61-2.91,2.61-7.32,0-10.23Z"/></g></svg>