<?xml version="1.0" encoding="UTF-8"?><svg id="Layer_2" xmlns="http://www.w3.org/2000/svg" viewBox="0 0 240 337.84"><defs><style>.cls-1{font-size:47.58px;}.cls-1,.cls-2{font-family:SourceSerifRoman-Semibold, 'Source Serif Variable';font-variation-settings:'wght' 600;font-weight:600;}.cls-1,.cls-2,.cls-3{fill:#000;}.cls-2{font-size:47.58px;}.cls-3,.cls-4{stroke-width:0px;}.cls-4{fill:#fff;}</style></defs><g id="Layer_10"><rect class="cls-4" y="1.84" width="240" height="336" rx="13.54" ry="13.54"/><text class="cls-2" transform="translate(15 57.34)"><tspan x="0" y="0">A</tspan></text><text class="cls-1" transform="translate(225 289.42) rotate(-180)"><tspan x="0" y="0">A</tspan></text><path class="cls-3" d="M62.74,163.07c1.34-1.96,2.94-3.56,4.58-5.26,4.38-4.56,14.87-12.42,20.2-16.07,17.19-11.84,32.32-33.11,32.32-33.11.03,0,.03-.06.07-.06s.03-.03.07-.03h.03s.03,0,.03,0c.03,0,.03.03.07.03s.03.06.07.06c0,0,15.13,21.27,32.33,33.11,5.29,3.66,15.82,11.52,20.2,16.07,1.63,1.7,3.24,3.3,4.58,5.26,7.75,11.29,5.69,28.1-3.95,38.02l-.26.22c-12.32,12.61-33.86,12.61-46.18,0l-2.26-2.31c.78,4.46,2.06,9.95,4.25,14.66,4.8,10.43,8.82,17.48,8.82,17.48h-35.36s4.02-7.06,8.82-17.48c2.19-4.72,3.46-10.2,4.25-14.66l-2.26,2.31c-12.32,12.61-33.86,12.61-46.18,0l-.26-.22c-9.64-9.91-11.7-26.72-3.95-38.02Z"/><path class="cls-3" d="M224.09,267.63c-.33.49-.74.89-1.14,1.32-1.09,1.14-3.72,3.1-5.05,4.02-4.3,2.96-8.08,8.28-8.08,8.28,0,0,0,.02-.02.02s0,0-.02,0h0s0,0,0,0c0,0,0,0-.02,0s0-.02-.02-.02c0,0-3.78-5.32-8.08-8.28-1.32-.91-3.95-2.88-5.05-4.02-.41-.43-.81-.83-1.14-1.32-1.94-2.82-1.42-7.03.99-9.5l.07-.06c3.08-3.15,8.47-3.15,11.55,0l.56.58c-.2-1.11-.51-2.49-1.06-3.67-1.2-2.61-2.21-4.37-2.21-4.37h8.84s-1.01,1.76-2.21,4.37c-.55,1.18-.87,2.55-1.06,3.67l.56-.58c3.08-3.15,8.47-3.15,11.55,0l.07.06c2.41,2.48,2.93,6.68.99,9.5Z"/><path class="cls-3" d="M16.05,77.48c.33-.49.74-.89,1.14-1.32,1.09-1.14,3.72-3.1,5.05-4.02,4.3-2.96,8.08-8.28,8.08-8.28,0,0,0-.02.02-.02s0,0,.02,0h0s0,0,0,0c0,0,0,0,.02,0s0,.02.02.02c0,0,3.78,5.32,8.08,8.28,1.32.91,3.95,2.88,5.05,4.02.41.43.81.83,1.14,1.32,1.94,2.82,1.42,7.03-.99,9.5l-.07.06c-3.08,3.15-8.47,3.15-11.55,0l-.56-.58c.2,1.11.51,2.49,1.06,3.67,1.2,2.61,2.21,4.37,2.21,4.37h-8.84s1.01-1.76,2.21-4.37c.55-1.18.87-2.55,1.06-3.67l-.56.58c-3.08,3.15-8.47,3.15-11.55,0l-.07-.06c-2.41-2.48-2.93-6.68-.99-9.5Z"/></g></svg>