<?xml version="1.0" encoding="UTF-8"?><svg id="Layer_2" xmlns="http://www.w3.org/2000/svg" viewBox="0 0 240 336"><defs><style>.cls-1{font-family:NotoSerifKannada-Medium, 'Noto Serif Kannada';font-size:45.43px;font-weight:500;}.cls-1,.cls-2{fill:red;}.cls-2,.cls-3{stroke-width:0px;}.cls-3{fill:#fff;}</style></defs><g id="Layer_9"><rect class="cls-3" width="240" height="336" rx="13.54" ry="13.54"/><text class="cls-1" transform="translate(20.66 50.32)"><tspan x="0" y="0">9</tspan></text><text class="cls-1" transform="translate(226.16 284) rotate(-180)"><tspan x="0" y="0">9</tspan></text><path class="cls-2" d="M98.66,120.32l-3.7,4.12-13.28,14.81-13.28-14.8-3.73-4.15c-3.33-3.72-3.33-9.35,0-13.06l.15-.16c3.88-4.33,10.67-4.33,14.56,0l2.3,2.57,2.27-2.53c3.91-4.36,10.72-4.36,14.63,0l.08.09c3.35,3.73,3.35,9.39,0,13.13Z"/><path class="cls-2" d="M175.32,120.79l-3.7,4.12-13.28,14.81-13.28-14.8-3.73-4.15c-3.33-3.72-3.33-9.35,0-13.06l.15-.16c3.88-4.33,10.67-4.33,14.56,0l2.3,2.57,2.27-2.53c3.91-4.36,10.72-4.36,14.63,0l.08.09c3.35,3.73,3.35,9.39,0,13.13Z"/><path class="cls-2" d="M175.32,61.95l-3.7,4.12-13.28,14.81-13.28-14.8-3.73-4.15c-3.33-3.72-3.33-9.35,0-13.06l.15-.16c3.88-4.33,10.67-4.33,14.56,0l2.3,2.57,2.27-2.53c3.91-4.36,10.72-4.36,14.63,0l.08.09c3.35,3.73,3.35,9.39,0,13.13Z"/><path class="cls-2" d="M98.66,61.95l-3.7,4.12-13.28,14.81-13.28-14.8-3.73-4.15c-3.33-3.72-3.33-9.35,0-13.06l.15-.16c3.88-4.33,10.67-4.33,14.56,0l2.3,2.57,2.27-2.53c3.91-4.36,10.72-4.36,14.63,0l.08.09c3.35,3.73,3.35,9.39,0,13.13Z"/><path class="cls-2" d="M64.68,215.6l3.7-4.12,13.28-14.81,13.28,14.8,3.73,4.15c3.33,3.72,3.33,9.35,0,13.06l-.15.16c-3.88,4.33-10.67,4.33-14.56,0l-2.3-2.57-2.27,2.53c-3.91,4.36-10.72,4.36-14.63,0l-.08-.09c-3.35-3.73-3.35-9.39,0-13.13Z"/><path class="cls-2" d="M140.89,213.72l3.7-4.12,13.28-14.81,13.28,14.8,3.73,4.15c3.33,3.72,3.33,9.35,0,13.06l-.15.16c-3.88,4.33-10.67,4.33-14.56,0l-2.3-2.57-2.27,2.53c-3.91,4.36-10.72,4.36-14.63,0l-.08-.09c-3.35-3.73-3.35-9.39,0-13.13Z"/><path class="cls-2" d="M64.68,274.78l3.7-4.12,13.28-14.81,13.28,14.8,3.73,4.15c3.33,3.72,3.33,9.35,0,13.06l-.15.16c-3.88,4.33-10.67,4.33-14.56,0l-2.3-2.57-2.27,2.53c-3.91,4.36-10.72,4.36-14.63,0l-.08-.09c-3.35-3.73-3.35-9.39,0-13.13Z"/><path class="cls-2" d="M140.89,274.78l3.7-4.12,13.28-14.81,13.28,14.8,3.73,4.15c3.33,3.72,3.33,9.35,0,13.06l-.15.16c-3.88,4.33-10.67,4.33-14.56,0l-2.3-2.57-2.27,2.53c-3.91,4.36-10.72,4.36-14.63,0l-.08-.09c-3.35-3.73-3.35-9.39,0-13.13Z"/><path class="cls-2" d="M48.02,76.03l-2.88,3.21-10.35,11.54-10.35-11.54-2.9-3.24c-2.6-2.9-2.6-7.29,0-10.18l.11-.13c3.03-3.37,8.32-3.37,11.35,0l1.8,2,1.77-1.97c3.04-3.39,8.36-3.39,11.4,0l.06.07c2.61,2.91,2.61,7.32,0,10.23Z"/><path class="cls-2" d="M200.42,260.7l2.88-3.21,10.35-11.54,10.35,11.54,2.9,3.24c2.6,2.9,2.6,7.29,0,10.18l-.11.13c-3.03,3.37-8.32,3.37-11.35,0l-1.8-2-1.77,1.97c-3.04,3.39-8.36,3.39-11.4,0l-.06-.07c-2.61-2.91-2.61-7.32,0-10.23Z"/><path class="cls-2" d="M136.99,169.88l-3.7,4.12-13.28,14.81-13.28-14.8-3.73-4.15c-3.33-3.72-3.33-9.35,0-13.06l.15-.16c3.88-4.33,10.67-4.33,14.56,0l2.3,2.57,2.27-2.53c3.91-4.36,10.72-4.36,14.63,0l.08.09c3.35,3.73,3.35,9.39,0,13.13Z"/></g></svg>