<?xml version="1.0" encoding="UTF-8"?><svg id="Layer_2" xmlns="http://www.w3.org/2000/svg" viewBox="0 0 240 336"><defs><style>.cls-1{font-family:NotoSerifKannada-SemiBold, 'Noto Serif Kannada';font-size:45.43px;font-weight:600;}.cls-1,.cls-2{fill:red;}.cls-2{stroke:red;stroke-miterlimit:10;}.cls-3{fill:#fff;stroke-width:0px;}</style></defs><g id="Layer_1-2"><rect class="cls-3" width="240" height="336" rx="13.54" ry="13.54"/><polygon class="cls-2" points="134.94 95.81 153.03 72.12 172.36 95.81 153.65 119.51 134.94 95.81"/><polygon class="cls-2" points="14.24 77.47 26.35 61.6 39.3 77.47 26.77 93.34 14.24 77.47"/><polygon class="cls-2" points="64.8 95.81 82.88 72.12 102.21 95.81 83.51 119.51 64.8 95.81"/><polygon class="cls-2" points="134.94 239.3 153.03 215.61 172.36 239.3 153.65 263 134.94 239.3"/><polygon class="cls-2" points="64.8 239.3 82.88 215.61 102.21 239.3 83.51 263 64.8 239.3"/><polygon class="cls-2" points="199.16 258.45 211.27 242.58 224.21 258.45 211.68 274.31 199.16 258.45"/><text class="cls-1" transform="translate(224.21 284.57) rotate(-180)"><tspan x="0" y="0">5</tspan></text><text class="cls-1" transform="translate(14.24 50.33)"><tspan x="0" y="0">5</tspan></text><polygon class="cls-2" points="100.54 168 118.62 144.31 137.95 168 119.24 191.69 100.54 168"/></g></svg>