<?xml version="1.0" encoding="UTF-8"?><svg id="Layer_2" xmlns="http://www.w3.org/2000/svg" viewBox="0 0 240 336"><defs><style>.cls-1{font-family:NotoSerifKannada-Medium, 'Noto Serif Kannada';font-size:45.43px;font-weight:500;}.cls-1,.cls-2{fill:red;}.cls-2{stroke:red;stroke-miterlimit:10;}.cls-3{fill:#fff;stroke-width:0px;}</style></defs><g id="Layer_1-2"><rect class="cls-3" width="240" height="336" rx="13.54" ry="13.54"/><polygon class="cls-2" points="71.01 167.5 89.1 143.81 108.43 167.5 89.72 191.2 71.01 167.5"/><polygon class="cls-2" points="71.21 74.98 89.3 51.29 108.63 74.98 89.92 98.68 71.21 74.98"/><polygon class="cls-2" points="71.01 260.35 89.1 236.66 108.43 260.35 89.72 284.05 71.01 260.35"/><polygon class="cls-2" points="137.2 75.32 155.29 51.62 174.62 75.32 155.91 99.01 137.2 75.32"/><polygon class="cls-2" points="138.88 167.83 156.96 144.14 176.29 167.83 157.59 191.53 138.88 167.83"/><polygon class="cls-2" points="139.08 260.68 157.16 236.99 176.49 260.68 157.79 284.38 139.08 260.68"/><text class="cls-1" transform="translate(20.66 50.33)"><tspan x="0" y="0">6</tspan></text><polygon class="cls-2" points="22.25 75.32 34.36 59.45 47.3 75.32 34.78 91.18 22.25 75.32"/><polygon class="cls-2" points="201.1 257.87 213.21 242 226.16 257.87 213.63 273.74 201.1 257.87"/><text class="cls-1" transform="translate(226.16 284) rotate(-180)"><tspan x="0" y="0">6</tspan></text></g></svg>