<?xml version="1.0" encoding="UTF-8"?><svg id="Layer_2" xmlns="http://www.w3.org/2000/svg" viewBox="0 0 240 336"><defs><style>.cls-1{font-family:NotoSerifKannada-SemiBold, 'Noto Serif Kannada';font-size:45.43px;font-weight:600;}.cls-1,.cls-2{fill:#000;}.cls-2,.cls-3{stroke-width:0px;}.cls-3{fill:#fff;}</style></defs><g id="Layer_10"><rect class="cls-3" width="240" height="336" rx="13.54" ry="13.54"/><text class="cls-1" transform="translate(20.66 50.33)"><tspan x="0" y="0">7</tspan></text><text class="cls-1" transform="translate(223.89 285.83) rotate(-180)"><tspan x="0" y="0">7</tspan></text><path class="cls-2" d="M227.95,266.32c-.33.49-.74.89-1.14,1.32-1.09,1.14-3.72,3.1-5.05,4.02-4.3,2.96-8.08,8.28-8.08,8.28,0,0,0,.02-.02.02s0,0-.02,0h0s0,0,0,0c0,0,0,0-.02,0s0-.02-.02-.02c0,0-3.78-5.32-8.08-8.28-1.32-.91-3.95-2.88-5.05-4.02-.41-.43-.81-.83-1.14-1.32-1.94-2.82-1.42-7.03.99-9.5l.07-.06c3.08-3.15,8.47-3.15,11.55,0l.56.58c-.2-1.11-.51-2.49-1.06-3.67-1.2-2.61-2.21-4.37-2.21-4.37h8.84s-1.01,1.76-2.21,4.37c-.55,1.18-.87,2.55-1.06,3.67l.56-.58c3.08-3.15,8.47-3.15,11.55,0l.07.06c2.41,2.48,2.93,6.68.99,9.5Z"/><path class="cls-2" d="M176.35,273.01c-.43.63-.95,1.15-1.48,1.7-1.41,1.47-4.8,4-6.52,5.18-5.55,3.82-10.43,10.68-10.43,10.68-.01,0-.01.02-.02.02s-.01.01-.02.01h-.01s-.01,0-.01,0c-.01,0-.01-.01-.02-.01s-.01-.02-.02-.02c0,0-4.88-6.86-10.43-10.68-1.71-1.18-5.1-3.72-6.52-5.18-.53-.55-1.04-1.07-1.48-1.7-2.5-3.64-1.83-9.07,1.28-12.26l.08-.07c3.97-4.07,10.92-4.07,14.9,0l.73.75c-.25-1.44-.66-3.21-1.37-4.73-1.55-3.36-2.85-5.64-2.85-5.64h11.41s-1.3,2.28-2.85,5.64c-.71,1.52-1.12,3.29-1.37,4.73l.73-.75c3.97-4.07,10.92-4.07,14.9,0l.08.07c3.11,3.2,3.77,8.62,1.28,12.26Z"/><path class="cls-2" d="M108.39,273.01c-.43.63-.95,1.15-1.48,1.7-1.41,1.47-4.8,4-6.52,5.18-5.55,3.82-10.43,10.68-10.43,10.68-.01,0-.01.02-.02.02s-.01.01-.02.01h-.01s-.01,0-.01,0c-.01,0-.01-.01-.02-.01s-.01-.02-.02-.02c0,0-4.88-6.86-10.43-10.68-1.71-1.18-5.1-3.72-6.52-5.18-.53-.55-1.04-1.07-1.48-1.7-2.5-3.64-1.83-9.07,1.28-12.26l.08-.07c3.97-4.07,10.92-4.07,14.9,0l.73.75c-.25-1.44-.66-3.21-1.37-4.73-1.55-3.36-2.85-5.64-2.85-5.64h11.41s-1.3,2.28-2.85,5.64c-.71,1.52-1.12,3.29-1.37,4.73l.73-.75c3.97-4.07,10.92-4.07,14.9,0l.08.07c3.11,3.2,3.77,8.62,1.28,12.26Z"/><path class="cls-2" d="M71.45,169.74c.43-.63.95-1.15,1.48-1.7,1.41-1.47,4.8-4,6.52-5.18,5.55-3.82,10.43-10.68,10.43-10.68.01,0,.01-.02.02-.02s.01-.01.02-.01h.01s.01,0,.01,0c.01,0,.01.01.02.01s.01.02.02.02c0,0,4.88,6.86,10.43,10.68,1.71,1.18,5.1,3.72,6.52,5.18.53.55,1.04,1.07,1.48,1.7,2.5,3.64,1.83,9.07-1.28,12.26l-.08.07c-3.97,4.07-10.92,4.07-14.9,0l-.73-.75c.25,1.44.66,3.21,1.37,4.73,1.55,3.36,2.85,5.64,2.85,5.64h-11.41s1.3-2.28,2.85-5.64c.71-1.52,1.12-3.29,1.37-4.73l-.73.75c-3.97,4.07-10.92,4.07-14.9,0l-.08-.07c-3.11-3.2-3.77-8.62-1.28-12.26Z"/><path class="cls-2" d="M139.41,169.74c.43-.63.95-1.15,1.48-1.7,1.41-1.47,4.8-4,6.52-5.18,5.55-3.82,10.43-10.68,10.43-10.68.01,0,.01-.02.02-.02s.01-.01.02-.01h.01s.01,0,.01,0c.01,0,.01.01.02.01s.01.02.02.02c0,0,4.88,6.86,10.43,10.68,1.71,1.18,5.1,3.72,6.52,5.18.53.55,1.04,1.07,1.48,1.7,2.5,3.64,1.83,9.07-1.28,12.26l-.08.07c-3.97,4.07-10.92,4.07-14.9,0l-.73-.75c.25,1.44.66,3.21,1.37,4.73,1.55,3.36,2.85,5.64,2.85,5.64h-11.41s1.3-2.28,2.85-5.64c.71-1.52,1.12-3.29,1.37-4.73l-.73.75c-3.97,4.07-10.92,4.07-14.9,0l-.08-.07c-3.11-3.2-3.77-8.62-1.28-12.26Z"/><path class="cls-2" d="M104.53,123.02c.43-.63.95-1.15,1.48-1.7,1.41-1.47,4.8-4,6.52-5.18,5.55-3.82,10.43-10.68,10.43-10.68.01,0,.01-.02.02-.02s.01-.01.02-.01h.01s.01,0,.01,0c.01,0,.01.01.02.01s.01.02.02.02c0,0,4.88,6.86,10.43,10.68,1.71,1.18,5.1,3.72,6.52,5.18.53.55,1.04,1.07,1.48,1.7,2.5,3.64,1.83,9.07-1.28,12.26l-.08.07c-3.97,4.07-10.92,4.07-14.9,0l-.73-.75c.25,1.44.66,3.21,1.37,4.73,1.55,3.36,2.85,5.64,2.85,5.64h-11.41s1.3-2.28,2.85-5.64c.71-1.52,1.12-3.29,1.37-4.73l-.73.75c-3.97,4.07-10.92,4.07-14.9,0l-.08-.07c-3.11-3.2-3.77-8.62-1.28-12.26Z"/><path class="cls-2" d="M71.45,76.63c.43-.63.95-1.15,1.48-1.7,1.41-1.47,4.8-4,6.52-5.18,5.55-3.82,10.43-10.68,10.43-10.68.01,0,.01-.02.02-.02s.01-.01.02-.01h.01s.01,0,.01,0c.01,0,.01.01.02.01s.01.02.02.02c0,0,4.88,6.86,10.43,10.68,1.71,1.18,5.1,3.72,6.52,5.18.53.55,1.04,1.07,1.48,1.7,2.5,3.64,1.83,9.07-1.28,12.26l-.08.07c-3.97,4.07-10.92,4.07-14.9,0l-.73-.75c.25,1.44.66,3.21,1.37,4.73,1.55,3.36,2.85,5.64,2.85,5.64h-11.41s1.3-2.28,2.85-5.64c.71-1.52,1.12-3.29,1.37-4.73l-.73.75c-3.97,4.07-10.92,4.07-14.9,0l-.08-.07c-3.11-3.2-3.77-8.62-1.28-12.26Z"/><path class="cls-2" d="M137.44,76.63c.43-.63.95-1.15,1.48-1.7,1.41-1.47,4.8-4,6.52-5.18,5.55-3.82,10.43-10.68,10.43-10.68.01,0,.01-.02.02-.02s.01-.01.02-.01h.01s.01,0,.01,0c.01,0,.01.01.02.01s.01.02.02.02c0,0,4.88,6.86,10.43,10.68,1.71,1.18,5.1,3.72,6.52,5.18.53.55,1.04,1.07,1.48,1.7,2.5,3.64,1.83,9.07-1.28,12.26l-.08.07c-3.97,4.07-10.92,4.07-14.9,0l-.73-.75c.25,1.44.66,3.21,1.37,4.73,1.55,3.36,2.85,5.64,2.85,5.64h-11.41s1.3-2.28,2.85-5.64c.71-1.52,1.12-3.29,1.37-4.73l-.73.75c-3.97,4.07-10.92,4.07-14.9,0l-.08-.07c-3.11-3.2-3.77-8.62-1.28-12.26Z"/><path class="cls-2" d="M20.46,74.22c.33-.49.74-.89,1.14-1.32,1.09-1.14,3.72-3.1,5.05-4.02,4.3-2.96,8.08-8.28,8.08-8.28,0,0,0-.02.02-.02s0,0,.02,0h0s0,0,0,0c0,0,0,0,.02,0s0,.02.02.02c0,0,3.78,5.32,8.08,8.28,1.32.91,3.95,2.88,5.05,4.02.41.43.81.83,1.14,1.32,1.94,2.82,1.42,7.03-.99,9.5l-.07.06c-3.08,3.15-8.47,3.15-11.55,0l-.56-.58c.2,1.11.51,2.49,1.06,3.67,1.2,2.61,2.21,4.37,2.21,4.37h-8.84s1.01-1.76,2.21-4.37c.55-1.18.87-2.55,1.06-3.67l-.56.58c-3.08,3.15-8.47,3.15-11.55,0l-.07-.06c-2.41-2.48-2.93-6.68-.99-9.5Z"/></g></svg>