<?xml version="1.0" encoding="UTF-8"?><svg id="Layer_2" xmlns="http://www.w3.org/2000/svg" viewBox="0 0 240 336"><defs><style>.cls-1{font-family:NotoSerifKannada-Medium, 'Noto Serif Kannada';font-size:45.43px;font-weight:500;}.cls-1,.cls-2{fill:#000;}.cls-2,.cls-3,.cls-4{stroke-width:0px;}.cls-3{fill:red;}.cls-4{fill:#fff;}</style></defs><g id="Layer_11"><rect class="cls-4" width="240" height="336" rx="13.54" ry="13.54"/><text class="cls-1" transform="translate(20.66 50.32)"><tspan x="0" y="0">9</tspan></text><text class="cls-1" transform="translate(225.96 286.26) rotate(-180)"><tspan x="0" y="0">9</tspan></text><path class="cls-3" d="M227.97,268.7c-.33.49-.74.89-1.14,1.32-1.09,1.14-3.72,3.1-5.05,4.02-4.3,2.96-8.08,8.28-8.08,8.28,0,0,0,.02-.02.02s0,0-.02,0h0s0,0,0,0c0,0,0,0-.02,0s0-.02-.02-.02c0,0-3.78-5.32-8.08-8.28-1.32-.91-3.95-2.88-5.05-4.02-.41-.43-.81-.83-1.14-1.32-1.94-2.82-1.42-7.03.99-9.5l.07-.06c3.08-3.15,8.47-3.15,11.55,0l.56.58c-.2-1.11-.51-2.49-1.06-3.67-1.2-2.61-2.21-4.37-2.21-4.37h8.84s-1.01,1.76-2.21,4.37c-.55,1.18-.87,2.55-1.06,3.67l.56-.58c3.08-3.15,8.47-3.15,11.55,0l.07.06c2.41,2.48,2.93,6.68.99,9.5Z"/><path class="cls-2" d="M103.22,175.91c0-5.47,4.58-9.89,10.22-9.89.29,0,.59.01.87.04-.35-1.14-.55-2.36-.55-3.63,0-6.3,4.73-11.4,10.56-11.4s10.57,5.1,10.57,11.4c0,1.26-.19,2.47-.55,3.61.21-.01.41-.02.63-.02,5.66,0,10.23,4.42,10.23,9.89s-4.58,9.88-10.23,9.88c-3.79,0-7.1-1.99-8.86-4.96h-.74c.99,1.34,2.71,3.66,3.52,4.65.96,1.15,2.41,2.41,2.41,2.41h-14.11s1.45-1.26,2.41-2.41c.81-.99,2.54-3.31,3.52-4.65h-.83c-1.75,2.97-5.06,4.96-8.86,4.96-5.65,0-10.22-4.42-10.22-9.88Z"/><path class="cls-2" d="M64.88,66.52c0-5.47,4.58-9.89,10.22-9.89.29,0,.59.01.87.04-.35-1.14-.55-2.36-.55-3.63,0-6.3,4.73-11.4,10.56-11.4s10.57,5.1,10.57,11.4c0,1.26-.19,2.47-.55,3.61.21-.01.41-.02.63-.02,5.66,0,10.23,4.42,10.23,9.89s-4.58,9.88-10.23,9.88c-3.79,0-7.1-1.99-8.86-4.96h-.74c.99,1.34,2.71,3.66,3.52,4.65.96,1.15,2.41,2.41,2.41,2.41h-14.11s1.45-1.26,2.41-2.41c.81-.99,2.54-3.31,3.52-4.65h-.83c-1.75,2.97-5.06,4.96-8.86,4.96-5.65,0-10.22-4.42-10.22-9.88Z"/><path class="cls-2" d="M141.55,66.52c0-5.47,4.58-9.89,10.22-9.89.29,0,.59.01.87.04-.35-1.14-.55-2.36-.55-3.63,0-6.3,4.73-11.4,10.56-11.4s10.57,5.1,10.57,11.4c0,1.26-.19,2.47-.55,3.61.21-.01.41-.02.63-.02,5.66,0,10.23,4.42,10.23,9.89s-4.58,9.88-10.23,9.88c-3.79,0-7.1-1.99-8.86-4.96h-.74c.99,1.34,2.71,3.66,3.52,4.65.96,1.15,2.41,2.41,2.41,2.41h-14.11s1.45-1.26,2.41-2.41c.81-.99,2.54-3.31,3.52-4.65h-.83c-1.75,2.97-5.06,4.96-8.86,4.96-5.65,0-10.22-4.42-10.22-9.88Z"/><path class="cls-2" d="M64.88,125.79c0-5.47,4.58-9.89,10.22-9.89.29,0,.59.01.87.04-.35-1.14-.55-2.36-.55-3.63,0-6.3,4.73-11.4,10.56-11.4s10.57,5.1,10.57,11.4c0,1.26-.19,2.47-.55,3.61.21-.01.41-.02.63-.02,5.66,0,10.23,4.42,10.23,9.89s-4.58,9.88-10.23,9.88c-3.79,0-7.1-1.99-8.86-4.96h-.74c.99,1.34,2.71,3.66,3.52,4.65.96,1.15,2.41,2.41,2.41,2.41h-14.11s1.45-1.26,2.41-2.41c.81-.99,2.54-3.31,3.52-4.65h-.83c-1.75,2.97-5.06,4.96-8.86,4.96-5.65,0-10.22-4.42-10.22-9.88Z"/><path class="cls-2" d="M141.1,125.79c0-5.47,4.58-9.89,10.22-9.89.29,0,.59.01.87.04-.35-1.14-.55-2.36-.55-3.63,0-6.3,4.73-11.4,10.56-11.4s10.57,5.1,10.57,11.4c0,1.26-.19,2.47-.55,3.61.21-.01.41-.02.63-.02,5.66,0,10.23,4.42,10.23,9.89s-4.58,9.88-10.23,9.88c-3.79,0-7.1-1.99-8.86-4.96h-.74c.99,1.34,2.71,3.66,3.52,4.65.96,1.15,2.41,2.41,2.41,2.41h-14.11s1.45-1.26,2.41-2.41c.81-.99,2.54-3.31,3.52-4.65h-.83c-1.75,2.97-5.06,4.96-8.86,4.96-5.65,0-10.22-4.42-10.22-9.88Z"/><path class="cls-2" d="M106.88,214.9c0,5.47-4.58,9.89-10.22,9.89-.29,0-.59-.01-.87-.04.35,1.14.55,2.36.55,3.63,0,6.3-4.73,11.4-10.56,11.4s-10.57-5.1-10.57-11.4c0-1.26.19-2.47.55-3.61-.21.01-.41.02-.63.02-5.66,0-10.23-4.42-10.23-9.89,0-5.46,4.58-9.88,10.23-9.88,3.79,0,7.1,1.99,8.86,4.96h.74c-.99-1.34-2.71-3.66-3.52-4.65-.96-1.15-2.41-2.41-2.41-2.41h14.11s-1.45,1.26-2.41,2.41c-.81.99-2.54,3.31-3.52,4.65h.83c1.75-2.97,5.06-4.96,8.86-4.96,5.65,0,10.22,4.42,10.22,9.88Z"/><path class="cls-2" d="M183.1,214.9c0,5.47-4.58,9.89-10.22,9.89-.29,0-.59-.01-.87-.04.35,1.14.55,2.36.55,3.63,0,6.3-4.73,11.4-10.56,11.4s-10.57-5.1-10.57-11.4c0-1.26.19-2.47.55-3.61-.21.01-.41.02-.63.02-5.66,0-10.23-4.42-10.23-9.89,0-5.46,4.58-9.88,10.23-9.88,3.79,0,7.1,1.99,8.86,4.96h.74c-.99-1.34-2.71-3.66-3.52-4.65-.96-1.15-2.41-2.41-2.41-2.41h14.11s-1.45,1.26-2.41,2.41c-.81.99-2.54,3.31-3.52,4.65h.83c1.75-2.97,5.06-4.96,8.86-4.96,5.65,0,10.22,4.42,10.22,9.88Z"/><path class="cls-2" d="M106.88,273.4c0,5.47-4.58,9.89-10.22,9.89-.29,0-.59-.01-.87-.04.35,1.14.55,2.36.55,3.63,0,6.3-4.73,11.4-10.56,11.4s-10.57-5.1-10.57-11.4c0-1.26.19-2.47.55-3.61-.21.01-.41.02-.63.02-5.66,0-10.23-4.42-10.23-9.89,0-5.46,4.58-9.88,10.23-9.88,3.79,0,7.1,1.99,8.86,4.96h.74c-.99-1.34-2.71-3.66-3.52-4.65-.96-1.15-2.41-2.41-2.41-2.41h14.11s-1.45,1.26-2.41,2.41c-.81.99-2.54,3.31-3.52,4.65h.83c1.75-2.97,5.06-4.96,8.86-4.96,5.65,0,10.22,4.42,10.22,9.88Z"/><path class="cls-2" d="M183.55,273.4c0,5.47-4.58,9.89-10.22,9.89-.29,0-.59-.01-.87-.04.35,1.14.55,2.36.55,3.63,0,6.3-4.73,11.4-10.56,11.4s-10.57-5.1-10.57-11.4c0-1.26.19-2.47.55-3.61-.21.01-.41.02-.63.02-5.66,0-10.23-4.42-10.23-9.89,0-5.46,4.58-9.88,10.23-9.88,3.79,0,7.1,1.99,8.86,4.96h.74c-.99-1.34-2.71-3.66-3.52-4.65-.96-1.15-2.41-2.41-2.41-2.41h14.11s-1.45,1.26-2.41,2.41c-.81.99-2.54,3.31-3.52,4.65h.83c1.75-2.97,5.06-4.96,8.86-4.96,5.65,0,10.22,4.42,10.22,9.88Z"/><path class="cls-2" d="M18.78,81.08c0-4.17,3.49-7.54,7.79-7.54.22,0,.45,0,.66.03-.27-.87-.42-1.8-.42-2.76,0-4.8,3.6-8.69,8.05-8.69s8.06,3.89,8.06,8.69c0,.96-.14,1.88-.42,2.75.16,0,.31-.02.48-.02,4.31,0,7.8,3.37,7.8,7.54s-3.49,7.53-7.8,7.53c-2.89,0-5.41-1.52-6.75-3.78h-.57c.75,1.02,2.07,2.79,2.69,3.54.73.88,1.84,1.84,1.84,1.84h-10.75s1.11-.96,1.84-1.84c.62-.75,1.93-2.52,2.69-3.54h-.64c-1.33,2.26-3.86,3.78-6.75,3.78-4.3,0-7.79-3.37-7.79-7.53Z"/><path class="cls-2" d="M229.66,262.09c0,4.17-3.49,7.54-7.79,7.54-.22,0-.45,0-.66-.03.27.87.42,1.8.42,2.76,0,4.8-3.6,8.69-8.05,8.69s-8.06-3.89-8.06-8.69c0-.96.14-1.88.42-2.75-.16,0-.31.02-.48.02-4.31,0-7.8-3.37-7.8-7.54,0-4.16,3.49-7.53,7.8-7.53,2.89,0,5.41,1.52,6.75,3.78h.57c-.75-1.02-2.07-2.79-2.69-3.54-.73-.88-1.84-1.84-1.84-1.84h10.75s-1.11.96-1.84,1.84c-.62.75-1.93,2.52-2.69,3.54h.64c1.33-2.26,3.86-3.78,6.75-3.78,4.3,0,7.79,3.37,7.79,7.53Z"/></g></svg>